<svg xmlns="http://www.w3.org/2000/svg" width="31.5" viewBox="0 0 31.5 31.5" height="31.5" version="1.0"><defs><clipPath id="a"><path d="M 0 0 L 31.007812 0 L 31.007812 31.007812 L 0 31.007812 Z M 0 0"/></clipPath></defs><g clip-path="url(#a)"><path fill="#FFF" d="M 0 0 L 31.5 0 L 31.5 39 L 0 39 Z M 0 0"/><path fill="#FFF" d="M 0 0 L 31.5 0 L 31.5 31.5 L 0 31.5 Z M 0 0"/><path fill="#F1CB45" d="M 0 0 L 31.5 0 L 31.5 31.5 L 0 31.5 Z M 0 0"/></g><g><g><g><path d="M 0.53125 -12.035156 L 0.53125 0 L 7.804688 0 L 7.804688 -3.59375 L 10.503906 -3.59375 L 10.503906 -7.460938 L 8.011719 -7.460938 L 8.011719 -7.976562 L 10.503906 -7.976562 L 10.503906 -12.035156 Z M 0.53125 -12.035156" transform="translate(3.15 21.798)"/></g></g></g><g><g><g><path d="M -0.480469 0 L 14.714844 0 L 7.117188 -12.875 Z M -0.480469 0" transform="translate(14.153 21.798)"/></g></g></g></svg>